<svg width="48" height="48" viewBox="0 0 48 48" fill="none" xmlns="http://www.w3.org/2000/svg">
<g filter="url(#filter0_d_2_40)">
<path fill-rule="evenodd" clip-rule="evenodd" d="M26 40C34.8366 40 42 32.8366 42 24C42 15.1634 34.8366 8 26 8C17.1634 8 10 15.1634 10 24C10 32.8366 17.1634 40 26 40ZM23.4128 28.6157C23.5673 28.6797 23.7328 28.7126 23.9 28.7125C24.0672 28.7126 24.2327 28.6797 24.3872 28.6157C24.5416 28.5517 24.6819 28.4578 24.8 28.3395L31.7805 21.3605L30.7195 20.3L23.9 27.1195L21.2805 24.5L20.2195 25.5605L23 28.3395C23.1181 28.4578 23.2584 28.5517 23.4128 28.6157Z" fill="white"/>
</g>
<defs>
<filter id="filter0_d_2_40" x="0" y="0" width="48" height="48" filterUnits="userSpaceOnUse" color-interpolation-filters="sRGB">
<feFlood flood-opacity="0" result="BackgroundImageFix"/>
<feColorMatrix in="SourceAlpha" type="matrix" values="0 0 0 0 0 0 0 0 0 0 0 0 0 0 0 0 0 0 127 0" result="hardAlpha"/>
<feOffset dx="-2"/>
<feGaussianBlur stdDeviation="4"/>
<feComposite in2="hardAlpha" operator="out"/>
<feColorMatrix type="matrix" values="0 0 0 0 0 0 0 0 0 0 0 0 0 0 0 0 0 0 0.16 0"/>
<feBlend mode="normal" in2="BackgroundImageFix" result="effect1_dropShadow_2_40"/>
<feBlend mode="normal" in="SourceGraphic" in2="effect1_dropShadow_2_40" result="shape"/>
</filter>
</defs>
</svg>
