<svg width="16" height="16" viewBox="0 0 16 16" fill="none" xmlns="http://www.w3.org/2000/svg">
<path d="M1.33333 7.33334H8.66667C9.02029 7.33334 9.35943 7.19287 9.60948 6.94282C9.85952 6.69277 10 6.35363 10 6.00001V1.33334C10 0.979719 9.85952 0.64058 9.60948 0.390532C9.35943 0.140483 9.02029 7.62939e-06 8.66667 7.62939e-06H1.33333C0.979711 7.62939e-06 0.640573 0.140483 0.390524 0.390532C0.140476 0.64058 0 0.979719 0 1.33334V6.00001C0 6.35363 0.140476 6.69277 0.390524 6.94282C0.640573 7.19287 0.979711 7.33334 1.33333 7.33334ZM1.33333 1.33334H8.66667V6.00001H1.33333V1.33334Z" fill="#57A2DA"/>
<path d="M14.6667 0H12.6667C12.313 0 11.9739 0.140476 11.7239 0.390524C11.4738 0.640573 11.3333 0.979711 11.3333 1.33333V6C11.3333 6.35362 11.4738 6.69276 11.7239 6.94281C11.9739 7.19286 12.313 7.33333 12.6667 7.33333H14.6667C15.0203 7.33333 15.3594 7.19286 15.6095 6.94281C15.8595 6.69276 16 6.35362 16 6V1.33333C16 0.979711 15.8595 0.640573 15.6095 0.390524C15.3594 0.140476 15.0203 0 14.6667 0ZM14.6667 6H12.6667V1.33333H14.6667V6Z" fill="#57A2DA"/>
<path d="M3.33333 8.66667H1.33333C0.979704 8.66667 0.640565 8.80715 0.390517 9.0572C0.140468 9.30725 -7.62939e-06 9.64639 -7.62939e-06 10V14.6667C-7.62939e-06 15.0203 0.140468 15.3594 0.390517 15.6095C0.640565 15.8595 0.979704 16 1.33333 16H3.33333C3.68695 16 4.02609 15.8595 4.27613 15.6095C4.52618 15.3594 4.66666 15.0203 4.66666 14.6667V10C4.66666 9.64639 4.52618 9.30725 4.27613 9.0572C4.02609 8.80715 3.68695 8.66667 3.33333 8.66667ZM3.33333 14.6667H1.33333V10H3.33333V14.6667Z" fill="#57A2DA"/>
<path d="M14.6667 8.66667H7.33333C6.97971 8.66667 6.64057 8.80715 6.39052 9.0572C6.14048 9.30725 6 9.64639 6 10V14.6667C6 15.0203 6.14048 15.3594 6.39052 15.6095C6.64057 15.8595 6.97971 16 7.33333 16H14.6667C15.0203 16 15.3594 15.8595 15.6095 15.6095C15.8595 15.3594 16 15.0203 16 14.6667V10C16 9.64639 15.8595 9.30725 15.6095 9.0572C15.3594 8.80715 15.0203 8.66667 14.6667 8.66667ZM14.6667 14.6667H7.33333V10H14.6667V14.6667Z" fill="#57A2DA"/>
</svg>
