<svg width="16" height="16" viewBox="0 0 16 16" fill="none" xmlns="http://www.w3.org/2000/svg">
<rect x="0.65" y="0.65" width="14.7" height="14.7" rx="0.85" stroke="#57A2DA" stroke-width="1.3"/>
<path d="M3.625 3.10001C3.48576 3.10001 3.35223 3.15532 3.25377 3.25377C3.15531 3.35223 3.1 3.48577 3.1 3.62501V6.07501C3.1 6.21424 3.15531 6.34778 3.25377 6.44624C3.35223 6.54469 3.48576 6.60001 3.625 6.60001C3.76424 6.60001 3.89777 6.54469 3.99623 6.44624C4.09469 6.34778 4.15 6.21424 4.15 6.07501V4.89201L5.704 6.44601C5.80352 6.53874 5.93516 6.58923 6.07117 6.58683C6.20718 6.58443 6.33695 6.52933 6.43314 6.43314C6.52932 6.33695 6.58442 6.20718 6.58682 6.07117C6.58922 5.93516 6.53874 5.80353 6.446 5.70401L4.892 4.15001H6.075C6.21424 4.15001 6.34777 4.09469 6.44623 3.99624C6.54469 3.89778 6.6 3.76424 6.6 3.62501C6.6 3.48577 6.54469 3.35223 6.44623 3.25377C6.34777 3.15532 6.21424 3.10001 6.075 3.10001H3.625ZM3.625 12.9C3.48576 12.9 3.35223 12.8447 3.25377 12.7462C3.15531 12.6478 3.1 12.5142 3.1 12.375V9.92501C3.1 9.78577 3.15531 9.65223 3.25377 9.55378C3.35223 9.45532 3.48576 9.40001 3.625 9.40001C3.76424 9.40001 3.89777 9.45532 3.99623 9.55378C4.09469 9.65223 4.15 9.78577 4.15 9.92501V11.108L5.704 9.55401C5.80352 9.46127 5.93516 9.41078 6.07117 9.41318C6.20718 9.41558 6.33695 9.47068 6.43314 9.56687C6.52932 9.66306 6.58442 9.79283 6.58682 9.92884C6.58922 10.0649 6.53874 10.1965 6.446 10.296L4.892 11.85H6.075C6.21424 11.85 6.34777 11.9053 6.44623 12.0038C6.54469 12.1022 6.6 12.2358 6.6 12.375C6.6 12.5142 6.54469 12.6478 6.44623 12.7462C6.34777 12.8447 6.21424 12.9 6.075 12.9H3.625ZM12.9 3.62501C12.9 3.48577 12.8447 3.35223 12.7462 3.25377C12.6478 3.15532 12.5142 3.10001 12.375 3.10001H9.925C9.78576 3.10001 9.65223 3.15532 9.55377 3.25377C9.45531 3.35223 9.4 3.48577 9.4 3.62501C9.4 3.76424 9.45531 3.89778 9.55377 3.99624C9.65223 4.09469 9.78576 4.15001 9.925 4.15001H11.108L9.554 5.70401C9.46126 5.80353 9.41078 5.93516 9.41318 6.07117C9.41558 6.20718 9.47068 6.33695 9.56687 6.43314C9.66305 6.52933 9.79282 6.58443 9.92883 6.58683C10.0648 6.58923 10.1965 6.53874 10.296 6.44601L11.85 4.89201V6.07501C11.85 6.21424 11.9053 6.34778 12.0038 6.44624C12.1022 6.54469 12.2358 6.60001 12.375 6.60001C12.5142 6.60001 12.6478 6.54469 12.7462 6.44624C12.8447 6.34778 12.9 6.21424 12.9 6.07501V3.62501ZM12.375 12.9C12.5142 12.9 12.6478 12.8447 12.7462 12.7462C12.8447 12.6478 12.9 12.5142 12.9 12.375V9.92501C12.9 9.78577 12.8447 9.65223 12.7462 9.55378C12.6478 9.45532 12.5142 9.40001 12.375 9.40001C12.2358 9.40001 12.1022 9.45532 12.0038 9.55378C11.9053 9.65223 11.85 9.78577 11.85 9.92501V11.108L10.296 9.55401C10.2479 9.50243 10.19 9.46105 10.1256 9.43236C10.0612 9.40366 9.99166 9.38824 9.92117 9.38699C9.85067 9.38575 9.78065 9.39872 9.71528 9.42512C9.64991 9.45152 9.59053 9.49083 9.54067 9.54068C9.49082 9.59053 9.45152 9.64992 9.42511 9.71529C9.39871 9.78066 9.38574 9.85068 9.38699 9.92117C9.38823 9.99166 9.40366 10.0612 9.43235 10.1256C9.46105 10.19 9.50242 10.2479 9.554 10.296L11.108 11.85H9.925C9.78576 11.85 9.65223 11.9053 9.55377 12.0038C9.45531 12.1022 9.4 12.2358 9.4 12.375C9.4 12.5142 9.45531 12.6478 9.55377 12.7462C9.65223 12.8447 9.78576 12.9 9.925 12.9H12.375Z" fill="#57A2DA"/>
</svg>
