<svg width="26" height="26" viewBox="0 0 26 26" fill="none" xmlns="http://www.w3.org/2000/svg">
<rect width="26" height="26" rx="6.656" fill="white"/>
<path d="M13 3.432C7.71575 3.432 3.432 7.71577 3.432 13C3.432 17.0535 5.95395 20.5187 9.51315 21.9128C9.42954 21.1558 9.35394 19.9915 9.54633 19.1651C9.72021 18.4184 10.6683 14.4092 10.6683 14.4092C10.6683 14.4092 10.3821 13.836 10.3821 12.9886C10.3821 11.6582 11.1532 10.6649 12.1134 10.6649C12.9297 10.6649 13.324 11.2778 13.324 12.0127C13.324 12.8336 12.8013 14.061 12.5316 15.1984C12.3062 16.1507 13.0091 16.9274 13.9484 16.9274C15.649 16.9274 16.9562 15.1343 16.9562 12.546C16.9562 10.2551 15.3101 8.65333 12.9596 8.65333C10.2371 8.65333 8.63919 10.6953 8.63919 12.8056C8.63919 13.6279 8.95598 14.5097 9.35127 14.9891C9.42946 15.0838 9.44092 15.1668 9.41762 15.2635C9.34499 15.5657 9.18358 16.2156 9.1519 16.3486C9.11017 16.5238 9.01323 16.5609 8.8319 16.4765C7.63692 15.9203 6.88979 14.1732 6.88979 12.7699C6.88979 9.75169 9.08272 6.97984 13.2117 6.97984C16.5308 6.97984 19.1102 9.34502 19.1102 12.5059C19.1102 15.8034 17.0311 18.4572 14.1453 18.4572C13.1757 18.4572 12.2643 17.9535 11.9523 17.3585C11.9523 17.3585 11.4725 19.1853 11.3562 19.633C11.1402 20.4641 10.5571 21.5058 10.167 22.1413C11.0622 22.4185 12.0136 22.568 13 22.568C18.2843 22.568 22.568 18.2842 22.568 13C22.568 7.71577 18.2843 3.432 13 3.432Z" fill="#131313"/>
</svg>
